<?xml version="1.0" encoding="UTF-8" standalone="no"?>
<!-- Created with Inkscape (http://www.inkscape.org/) -->

<svg
   xmlns:dc="http://purl.org/dc/elements/1.1/"
   xmlns:cc="http://creativecommons.org/ns#"
   xmlns:rdf="http://www.w3.org/1999/02/22-rdf-syntax-ns#"
   xmlns:svg="http://www.w3.org/2000/svg"
   xmlns="http://www.w3.org/2000/svg"
   xmlns:sodipodi="http://sodipodi.sourceforge.net/DTD/sodipodi-0.dtd"
   xmlns:inkscape="http://www.inkscape.org/namespaces/inkscape"
   width="6.2129421mm"
   height="8.3859148mm"
   viewBox="0 0 6.2129421 8.3859148"
   version="1.1"
   id="svg226"
   inkscape:version="0.92.2 2405546, 2018-03-11"
   sodipodi:docname="logo.svg">
  <defs
     id="defs220" />
  <sodipodi:namedview
     id="base"
     pagecolor="#ffffff"
     bordercolor="#666666"
     borderopacity="1.0"
     inkscape:pageopacity="0.0"
     inkscape:pageshadow="2"
     inkscape:zoom="11.2"
     inkscape:cx="22.771357"
     inkscape:cy="6.1742726"
     inkscape:document-units="mm"
     inkscape:current-layer="layer1"
     showgrid="false"
     fit-margin-top="0"
     fit-margin-left="0"
     fit-margin-right="0"
     fit-margin-bottom="0"
     inkscape:window-width="1920"
     inkscape:window-height="1003"
     inkscape:window-x="0"
     inkscape:window-y="37"
     inkscape:window-maximized="1" />
  <metadata
     id="metadata223">
    <rdf:RDF>
      <cc:Work
         rdf:about="">
        <dc:format>image/svg+xml</dc:format>
        <dc:type
           rdf:resource="http://purl.org/dc/dcmitype/StillImage" />
        <dc:title></dc:title>
      </cc:Work>
    </rdf:RDF>
  </metadata>
  <g
     inkscape:label="Layer 1"
     inkscape:groupmode="layer"
     id="layer1"
     transform="translate(-72.488785,-97.015485)">
    <path
       inkscape:connector-curvature="0"
       id="path123"
       d="m 78.579473,98.03201 c -2.452158,0 -2.867025,-0.930804 -2.870729,-0.939535 -0.01799,-0.04551 -0.06244,-0.07594 -0.112712,-0.07699 0,0 -0.0011,0 -0.0021,0 -0.04868,0 -0.09366,0.03043 -0.113239,0.07488 -0.0029,0.0098 -0.426773,0.941652 -2.869671,0.941652 -0.06826,0 -0.122237,0.0553 -0.122237,0.121973 v 4.17089 c 0,1.70736 2.932642,3.01175 3.056731,3.06652 0.0164,0.007 0.03201,0.01 0.04974,0.01 0.01614,0 0.0336,-0.003 0.04921,-0.01 0.125148,-0.0548 3.057261,-1.35916 3.057261,-3.06652 v -4.17089 c -5.29e-4,-0.06668 -0.05477,-0.121973 -0.122238,-0.121973 z m -0.55245,4.05024 c 0,1.33588 -2.296054,2.35797 -2.393685,2.4003 -0.01191,0.006 -0.02593,0.008 -0.03836,0.008 -0.01349,0 -0.02593,-0.002 -0.03863,-0.008 -0.09657,-0.0423 -2.393421,-1.06442 -2.393421,-2.4003 v -3.264692 c 0,-0.05265 0.0426,-0.09604 0.09578,-0.09604 1.912673,0 2.244196,-0.729191 2.247371,-0.736335 0.01508,-0.03519 0.05001,-0.059 0.08837,-0.059 5.29e-4,0 0.0016,0 0.0016,0 0.03916,5.29e-4 0.07382,0.02434 0.08784,0.06059 0.0032,0.0066 0.328083,0.734748 2.247371,0.734748 0.05318,0 0.09551,0.04339 0.09551,0.09604 z"
       style="stroke-width:0.26458332" />
    <path
       inkscape:connector-curvature="0"
       style="fill:#000000;stroke-width:0.01309835"
       d="m 74.204374,99.874288 c 0.198178,-0.13111 0.443248,-0.16425 0.676268,-0.16215 0.221887,0.003 0.454775,0.0416 0.638676,0.17407 0.133603,0.0939 0.220445,0.238922 0.27834,0.388912 0.09365,0.24625 0.12116,0.51215 0.124303,0.77385 3.9e-4,0.26354 -0.01153,0.53284 -0.09876,0.78394 -0.05842,0.1708 -0.169624,0.32248 -0.316325,0.42779 0.105573,0.17106 0.213241,0.34082 0.318814,0.51188 -0.132687,0.0612 -0.26498,0.12273 -0.397797,0.18364 -0.113039,-0.18652 -0.225554,-0.37343 -0.338986,-0.55969 -0.153382,0.0251 -0.3103,0.0232 -0.464467,0.006 -0.184687,-0.0221 -0.372911,-0.0785 -0.515421,-0.20277 -0.109502,-0.0948 -0.178268,-0.22752 -0.225291,-0.36243 -0.07702,-0.22817 -0.09771,-0.47101 -0.101251,-0.71045 -0.0018,-0.25883 0.01467,-0.52171 0.09274,-0.77005 0.06038,-0.18679 0.160323,-0.373192 0.329161,-0.482702 z"
       id="path8" />
    <path
       inkscape:connector-curvature="0"
       style="fill:#000000;stroke-width:0.01309835"
       d="m 76.454148,99.865908 c 0.138842,-1.5e-4 0.277685,-1.5e-4 0.416527,0 3.9e-4,0.183642 -1.3e-4,0.367162 2.64e-4,0.550802 0.177483,2.6e-4 0.354965,0 0.532448,1.5e-4 -0.003,0.11919 -0.0063,0.23839 -0.0097,0.35758 -0.177352,3.6e-4 -0.354573,-1.4e-4 -0.531925,2.7e-4 3.9e-4,0.301 -9.22e-4,0.60199 6.38e-4,0.90299 0.0034,0.0824 0.0016,0.16937 0.03785,0.24547 0.02646,0.0587 0.09771,0.0737 0.155739,0.0757 0.109371,-3.6e-4 0.218611,-0.007 0.327983,-0.009 0.0067,0.1095 0.0131,0.21913 0.01939,0.32863 -0.217564,0.0366 -0.445868,0.0803 -0.661991,0.0119 -0.09103,-0.027 -0.175911,-0.0874 -0.212848,-0.17735 -0.06615,-0.15312 -0.07152,-0.32353 -0.0744,-0.48792 -2.64e-4,-0.29694 0,-0.59375 -1.3e-4,-0.89068 -0.0968,-2.7e-4 -0.193593,1.4e-4 -0.29039,-2.7e-4 -2.64e-4,-0.11906 -2.64e-4,-0.23826 0,-0.35745 0.0968,-3.5e-4 0.193462,1.5e-4 0.290259,-2.6e-4 3.9e-4,-0.18364 -1.3e-4,-0.36716 2.64e-4,-0.550802 z"
       id="path10" />
    <path
       inkscape:connector-curvature="0"
       style="fill:#41cd52;fill-opacity:1;stroke-width:0.01309835"
       d="m 74.703946,100.08872 c 0.134782,-0.0175 0.276244,-0.0128 0.403822,0.0381 0.103346,0.0409 0.191105,0.12091 0.237473,0.22229 0.07112,0.15365 0.09837,0.32327 0.112122,0.4908 0.01493,0.22293 0.01283,0.44796 -0.01794,0.66959 -0.02161,0.1319 -0.05239,0.27087 -0.141724,0.37487 -0.09064,0.1044 -0.2304,0.14919 -0.364527,0.15967 -0.141462,0.0104 -0.290653,0 -0.418362,-0.0669 -0.07453,-0.0397 -0.137794,-0.10191 -0.174732,-0.17814 -0.0448,-0.0913 -0.06942,-0.19097 -0.08671,-0.29078 -0.05213,-0.31646 -0.06471,-0.64392 0.0065,-0.95855 0.02934,-0.11866 0.07204,-0.24048 0.158752,-0.32995 0.07545,-0.0766 0.180495,-0.11619 0.285282,-0.13098 z"
       id="path12" />
    <path
       style="fill:#41cd52;fill-opacity:1;stroke-width:0.17857143"
       d="m 283.92867,393.97355 c -3.57662,-2.04307 -5.82471,-4.05435 -6.75588,-6.04421 l -0.5337,-1.14049 0.0468,-6.77239 0.0468,-6.77238 1.79164,-0.11901 c 3.11284,-0.20677 5.48454,-1.03552 6.5604,-2.29243 l 0.59365,-0.69354 0.68124,0.72338 c 1.20539,1.27995 3.4587,2.05305 6.58959,2.26086 l 1.81919,0.12074 v 6.875 6.875 l -0.53571,1.06582 c -0.9865,1.96268 -4.04053,4.57633 -7.18241,6.14673 -0.61104,0.30542 -1.2539,0.55471 -1.42857,0.55398 -0.17468,-7.2e-4 -0.93657,-0.35491 -1.69309,-0.78706 z m 2.59343,-5.45505 c 0.0806,-0.0764 -0.10722,-0.55124 -0.41733,-1.05525 l -0.56385,-0.91637 0.46044,-0.5472 c 0.75252,-0.89432 1.05137,-2.26002 0.94999,-4.34124 -0.10997,-2.25759 -0.35166,-3.05371 -1.17788,-3.87993 -1.65796,-1.65796 -5.39349,-1.1934 -6.33356,0.78766 -0.49354,1.04005 -0.70225,2.4461 -0.61388,4.13556 0.16567,3.16719 1.24917,4.38163 3.90921,4.38163 0.89481,0 1.06797,0.0556 1.2515,0.40179 0.11715,0.22098 0.39998,0.69954 0.62851,1.06348 l 0.4155,0.66169 0.67242,-0.27647 c 0.36983,-0.15206 0.73835,-0.33897 0.81893,-0.41535 z m 6.01421,-2.32799 v -0.71429 h -0.79729 c -1.05773,0 -1.167,-0.24134 -1.167,-2.57755 v -1.88674 h 0.96339 0.96338 l 0.069,-0.72356 c 0.038,-0.39796 0.033,-0.75957 -0.011,-0.80357 -0.044,-0.044 -0.50858,-0.08 -1.03239,-0.08 h -0.95238 v -0.98214 -0.98214 h -0.80357 -0.80357 v 0.98214 0.98214 h -0.625 c -0.62169,0 -0.625,0.004 -0.625,0.80357 0,0.79932 0.003,0.80357 0.625,0.80357 h 0.625 v 2.31303 c 0,3.26547 0.18597,3.54589 2.36607,3.56775 l 1.20536,0.0121 z"
       id="path365"
       inkscape:connector-curvature="0"
       transform="scale(0.26458333)" />
  </g>
</svg>
